<svg xmlns="http://www.w3.org/2000/svg" width="126.123" height="116" viewBox="0 0 126.123 116">
  <g id="Сгруппировать_3902" data-name="Сгруппировать 3902" transform="translate(-690 -3300)">
    <path id="Контур_41517" data-name="Контур 41517" d="M122.443,232.618a2.555,2.555,0,1,1-1.159-4.977l4.923-1.156a52.611,52.611,0,0,0-30-9.319v-.01a52.9,52.9,0,0,0-52.888,52.9,2.558,2.558,0,0,1-5.116,0,57.989,57.989,0,0,1,58-57.995v-.01a57.768,57.768,0,0,1,33.887,10.931l1.521-5.041a2.555,2.555,0,1,1,4.9,1.459l-2.777,9.205a2.553,2.553,0,0,1-1.882,1.8l-9.408,2.209ZM69.252,306.979,59.8,309.005a2.554,2.554,0,0,0-1.94,1.848l-2.928,9.067a2.55,2.55,0,1,0,4.857,1.559l1.619-5.014a57.8,57.8,0,0,0,33.443,11.57,2.593,2.593,0,0,0,.28.015v-.01a57.986,57.986,0,0,0,59.051-56.623,2.6,2.6,0,0,0,.016-.289,2.558,2.558,0,1,0-5.116,0c0,.053,0,.1,0,.157a52.9,52.9,0,0,1-53.916,51.658h-.04v-.009c-.055,0-.111,0-.165.005a52.572,52.572,0,0,1-29.6-9.9l4.942-1.06a2.554,2.554,0,1,0-1.059-5Z" transform="translate(656.799 3087.949)" fill="#d4091b" fill-rule="evenodd"/>
    <g id="Сгруппировать_3901" data-name="Сгруппировать 3901" transform="translate(0 0.016)">
      <path id="Контур_41512" data-name="Контур 41512" d="M-9394.047-20456.617l6.079.785,4.706,9.51,3.922,1.961,5.1.49h3.138l4.412-1.961,3.138-3.727,3.726-5.588,49.708-.686,2.55.783,1.765,5.49,2.451,3.531,3.628,2.352,5.784,1.766,6.274-3.039,5.1-6.668,1.765-5.49,6.806-7.646v-18.727l-8.57-10.1,4.118-8.529-31.179-3.334h-14.9l-13.727.686-12.647,4.707-18.433,11.568-6.667,4.609-11.961,4.705-4.608,3.334-2.157,3.627-1.267,3.432v11.178Z" transform="translate(10088 23833)" fill="#212020"/>
      <g id="Сгруппировать_3901-2" data-name="Сгруппировать 3901" transform="translate(-432 -830.189)">
        <g id="surface1" transform="translate(1122 4155.174)">
          <path id="Контур_41507" data-name="Контур 41507" d="M2.1,54.825H8.576a14.7,14.7,0,0,0,29.092,0H88.455a14.7,14.7,0,0,0,29.218-1.185l7.839-7.838a2.1,2.1,0,0,0,.612-1.487V25.4a2.107,2.107,0,0,0-.46-1.314l-7.568-9.459,3.614-7.206a2.1,2.1,0,0,0-.943-2.819,2.071,2.071,0,0,0-.718-.21L108.581,3.18,88.042,1.013A85.889,85.889,0,0,0,48.236,6.028,77.758,77.758,0,0,0,28.056,18.2l-4.019,3.35-2.868,1.564L7.914,28.261a2.033,2.033,0,0,0-.246.114A14.715,14.715,0,0,0,0,41.292V52.724A2.1,2.1,0,0,0,2.1,54.825Zm21.021,8.409a10.51,10.51,0,1,1,10.51-10.51A10.51,10.51,0,0,1,23.123,63.234Zm79.878,0a10.51,10.51,0,1,1,10.51-10.51A10.511,10.511,0,0,1,103,63.234ZM121.919,33.8h-6.767L114.1,29.6h7.818ZM109.462,7.5l7.117.75-2.848,5.7a2.1,2.1,0,0,0,.24,2.254l7.357,9.2h-9.919a2.1,2.1,0,0,0-2.1,2.1,2.08,2.08,0,0,0,.062.508l2.1,8.408a2.1,2.1,0,0,0,2.039,1.593h8.408v5.436l-4.876,4.875c0-.021-.019-.042-.025-.063a14.578,14.578,0,0,0-.751-1.856c-.063-.13-.121-.263-.189-.393a14.95,14.95,0,0,0-1.021-1.692c-.076-.109-.16-.21-.238-.317a14.286,14.286,0,0,0-1.188-1.415c-.056-.061-.109-.128-.17-.187a15.025,15.025,0,0,0-1.5-1.314c-.122-.092-.242-.183-.363-.271a14.98,14.98,0,0,0-1.694-1.07c-.078-.042-.162-.075-.242-.115a14.575,14.575,0,0,0-1.728-.742c-.118-.043-.231-.091-.349-.131a14.966,14.966,0,0,0-1.987-.5c-.143-.025-.288-.044-.42-.065A14.51,14.51,0,0,0,103,38.009c-.486,0-.967.027-1.44.074-.157.014-.311.044-.466.066-.316.039-.631.081-.936.143-.183.036-.359.084-.541.126-.273.066-.547.131-.815.21-.187.055-.368.12-.551.183-.255.088-.509.176-.757.277-.18.074-.359.154-.538.235-.24.108-.475.21-.708.341-.175.092-.347.185-.518.283-.227.128-.447.265-.666.406-.166.105-.328.21-.487.323q-.316.227-.63.471c-.152.117-.3.233-.448.357-.21.175-.4.36-.6.545-.134.124-.268.245-.4.376-.21.21-.391.42-.582.63-.107.124-.21.242-.322.368-.223.274-.431.557-.63.841-.057.085-.122.16-.179.244q-.379.562-.7,1.159c-.062.113-.113.233-.172.349-.15.29-.3.582-.421.883-.067.16-.124.323-.189.487-.1.265-.21.529-.294.8-.059.18-.107.368-.157.552-.074.264-.145.524-.21.79-.044.2-.078.4-.114.6-.029.16-.069.316-.092.477H65.754l1.051-4.2H81.98V42.213H67.856l4.4-17.592L98.9,23.295a2.1,2.1,0,0,0,1.7-1.017ZM77.217,4.767c.492,0,.981-.032,1.471-.032A84.965,84.965,0,0,1,87.6,5.2l17.252,1.821L97.571,19.15l-24.252,1.2ZM30.746,21.428A73.514,73.514,0,0,1,49.836,9.917a74.514,74.514,0,0,1,23-4.969L68.933,20.577,29.414,22.549ZM4.2,41.292a10.5,10.5,0,0,1,5.365-9.169L22.493,27.1,67.856,24.84,63.522,42.213H39.939v4.2H62.471l-1.051,4.2H37.687c-.023-.162-.062-.317-.092-.476-.035-.21-.069-.4-.113-.6-.059-.267-.131-.528-.21-.79-.051-.186-.1-.372-.157-.554-.088-.273-.192-.538-.294-.8-.066-.163-.122-.328-.19-.487-.13-.3-.277-.593-.42-.883-.059-.116-.109-.235-.173-.349q-.323-.594-.7-1.158c-.056-.084-.122-.16-.179-.244-.21-.288-.42-.572-.63-.841-.1-.127-.21-.244-.322-.368-.192-.21-.381-.435-.582-.631-.128-.13-.263-.252-.4-.376-.2-.185-.391-.37-.6-.545-.145-.124-.3-.24-.448-.358-.21-.162-.421-.319-.63-.47-.16-.112-.322-.21-.487-.324-.21-.14-.44-.277-.667-.405-.17-.1-.342-.192-.517-.284-.233-.12-.469-.233-.708-.34-.179-.082-.358-.162-.538-.235-.248-.1-.5-.189-.757-.278-.183-.063-.363-.128-.551-.182-.269-.08-.542-.145-.816-.21-.181-.042-.357-.091-.54-.127-.307-.061-.62-.1-.936-.143-.156-.021-.309-.05-.466-.065a11.4,11.4,0,0,0-1.442-.088c-.486,0-.967.027-1.44.074-.157.014-.311.044-.466.065-.316.04-.631.082-.936.143-.183.036-.359.085-.541.127-.273.065-.547.13-.815.21-.187.055-.369.12-.551.182-.255.089-.509.177-.757.278-.181.074-.359.153-.538.235-.239.107-.475.21-.708.34-.174.092-.347.185-.517.284-.227.128-.447.265-.666.406-.166.105-.328.21-.488.324q-.316.227-.63.471c-.151.118-.3.233-.448.358-.21.175-.4.359-.6.544-.061.055-.124.108-.18.164H4.2Zm0,5.125h5.64c-.08.166-.162.328-.235.5s-.124.323-.189.487c-.1.265-.21.529-.294.8-.059.181-.108.368-.158.553-.074.263-.145.524-.21.79-.044.2-.077.4-.113.6-.03.16-.069.316-.092.477H4.2Zm0,0" transform="translate(0 -0.49)" fill="#fff"/>
          <path id="Контур_41508" data-name="Контур 41508" d="M230.4,123.836h10.51v4.2H230.4Zm0,0" transform="translate(-179.949 -96.828)" fill="#fff"/>
          <path id="Контур_41509" data-name="Контур 41509" d="M384,123.836h12.613v4.2H384Zm0,0" transform="translate(-299.918 -96.828)" fill="#fff"/>
        </g>
        <path id="Контур_41510" data-name="Контур 41510" d="M-8934.716-19657.107l35.324-1.729,3.381-13.309a65.259,65.259,0,0,0-21.637,5.152A94.833,94.833,0,0,0-8934.716-19657.107Z" transform="translate(10089.058 23833.191)" fill="#fff"/>
        <path id="Контур_41511" data-name="Контур 41511" d="M-8890.292-19672.35a101.636,101.636,0,0,1,10.729.406c6.266.541,13.749,1.578,13.749,1.578l-5.906,10.051-21.862.994Z" transform="translate(10090.447 23833.188)" fill="#fff"/>
      </g>
    </g>
  </g>
</svg>
