<svg xmlns="http://www.w3.org/2000/svg" width="125.118" height="89.144" viewBox="0 0 125.118 89.144">
  <g id="Сгруппировать_3900" data-name="Сгруппировать 3900" transform="translate(-1442 -3949)">
    <g id="Сгруппировать_3898" data-name="Сгруппировать 3898" transform="translate(1534.272 3970.905)">
      <g id="Сгруппировать_3876" data-name="Сгруппировать 3876" transform="translate(12.512 0)">
        <g id="Сгруппировать_3861" data-name="Сгруппировать 3861" transform="translate(0 23.487)">
          <path id="Контур_41467" data-name="Контур 41467" d="M52.558,53.9a1.563,1.563,0,0,1-1.564-1.564V33.588a1.564,1.564,0,0,1,3.128,0V52.33A1.563,1.563,0,0,1,52.558,53.9Z" transform="translate(-50.994 -32.024)" fill="#d4091b"/>
        </g>
        <g id="Сгруппировать_3862" data-name="Сгруппировать 3862" transform="translate(17.203 17.21)">
          <path id="Контур_41468" data-name="Контур 41468" d="M63.558,56.159A1.563,1.563,0,0,1,61.994,54.6V29.574a1.564,1.564,0,1,1,3.128,0V54.6A1.563,1.563,0,0,1,63.558,56.159Z" transform="translate(-61.994 -28.01)" fill="#d4091b"/>
        </g>
        <g id="Сгруппировать_3863" data-name="Сгруппировать 3863" transform="translate(0 20.336)">
          <path id="Контур_41469" data-name="Контур 41469" d="M52.558,36.288a1.563,1.563,0,0,1-1.564-1.564,4.72,4.72,0,0,1,4.714-4.715,1.564,1.564,0,0,1,0,3.128,1.588,1.588,0,0,0-1.586,1.587A1.563,1.563,0,0,1,52.558,36.288Z" transform="translate(-50.994 -30.009)" fill="#d4091b"/>
        </g>
        <g id="Сгруппировать_3864" data-name="Сгруппировать 3864" transform="translate(4.692 17.21)">
          <path id="Контур_41470" data-name="Контур 41470" d="M55.558,34.266a1.564,1.564,0,0,1,0-3.128,1.565,1.565,0,0,0,1.564-1.564,1.564,1.564,0,0,1,3.128,0A4.7,4.7,0,0,1,55.558,34.266Z" transform="translate(-53.994 -28.01)" fill="#d4091b"/>
        </g>
        <g id="Сгруппировать_3865" data-name="Сгруппировать 3865" transform="translate(0 42.229)">
          <path id="Контур_41471" data-name="Контур 41471" d="M55.708,50.287a4.72,4.72,0,0,1-4.714-4.715,1.564,1.564,0,1,1,3.128,0,1.588,1.588,0,0,0,1.586,1.587,1.564,1.564,0,0,1,0,3.128Z" transform="translate(-50.994 -44.008)" fill="#d4091b"/>
        </g>
        <g id="Сгруппировать_3866" data-name="Сгруппировать 3866" transform="translate(14.075 42.231)">
          <path id="Контур_41472" data-name="Контур 41472" d="M61.558,50.265a1.564,1.564,0,1,1,0-3.128,1.565,1.565,0,0,0,1.564-1.564,1.564,1.564,0,1,1,3.128,0A4.7,4.7,0,0,1,61.558,50.265Z" transform="translate(-59.994 -44.009)" fill="#d4091b"/>
        </g>
        <g id="Сгруппировать_3867" data-name="Сгруппировать 3867" transform="translate(3.15 45.381)">
          <path id="Контур_41473" data-name="Контур 41473" d="M65.5,49.151H54.572a1.564,1.564,0,1,1,0-3.128H65.5a1.564,1.564,0,0,1,0,3.128Z" transform="translate(-53.008 -46.023)" fill="#d4091b"/>
        </g>
        <g id="Сгруппировать_3868" data-name="Сгруппировать 3868" transform="translate(7.82 12.518)">
          <path id="Контур_41474" data-name="Контур 41474" d="M66.942,32.83H57.558a1.563,1.563,0,0,1-1.564-1.564V26.574a1.563,1.563,0,0,1,1.564-1.564h9.384a1.563,1.563,0,0,1,1.564,1.564v4.692A1.563,1.563,0,0,1,66.942,32.83ZM59.122,29.7h6.256V28.138H59.122Z" transform="translate(-55.994 -25.01)" fill="#d4091b"/>
        </g>
        <g id="Сгруппировать_3869" data-name="Сгруппировать 3869" transform="translate(9.384 0)">
          <path id="Контур_41475" data-name="Контур 41475" d="M64.814,32.652H58.558a1.563,1.563,0,0,1-1.564-1.564V27.963a1.564,1.564,0,1,1,3.128,0v1.561H63.25V18.57a1.564,1.564,0,0,1,3.128,0V31.088A1.563,1.563,0,0,1,64.814,32.652Z" transform="translate(-56.994 -17.006)" fill="#d4091b"/>
        </g>
        <g id="Сгруппировать_3870" data-name="Сгруппировать 3870" transform="translate(6.256 6.265)">
          <path id="Контур_41476" data-name="Контур 41476" d="M59.686,27.268A1.563,1.563,0,0,1,58.122,25.7a1.565,1.565,0,0,0-1.564-1.564,1.564,1.564,0,1,1,0-3.128A4.7,4.7,0,0,1,61.25,25.7,1.564,1.564,0,0,1,59.686,27.268Z" transform="translate(-54.994 -21.012)" fill="#d4091b"/>
        </g>
        <g id="Сгруппировать_3871" data-name="Сгруппировать 3871" transform="translate(1.561 0.003)">
          <path id="Контур_41477" data-name="Контур 41477" d="M69.2,20.136H53.556a1.564,1.564,0,0,1,0-3.128H69.2a1.564,1.564,0,1,1,0,3.128Z" transform="translate(-51.992 -17.008)" fill="#d4091b"/>
        </g>
        <g id="Сгруппировать_3872" data-name="Сгруппировать 3872" transform="translate(1.561 0.003)">
          <path id="Контур_41478" data-name="Контур 41478" d="M53.556,26.4a1.563,1.563,0,0,1-1.564-1.564V18.572a1.564,1.564,0,1,1,3.128,0v6.262A1.564,1.564,0,0,1,53.556,26.4Z" transform="translate(-51.992 -17.008)" fill="#d4091b"/>
        </g>
        <g id="Сгруппировать_3873" data-name="Сгруппировать 3873" transform="translate(1.561 6.265)">
          <path id="Контур_41479" data-name="Контур 41479" d="M58.251,24.14H53.556a1.564,1.564,0,1,1,0-3.128h4.695a1.564,1.564,0,0,1,0,3.128Z" transform="translate(-51.992 -21.012)" fill="#d4091b"/>
        </g>
        <g id="Сгруппировать_3874" data-name="Сгруппировать 3874" transform="translate(4.692 6.267)">
          <path id="Контур_41480" data-name="Контур 41480" d="M55.556,27.27a1.562,1.562,0,0,1-1.4-2.263l1.564-3.131a1.564,1.564,0,1,1,2.8,1.4l-1.564,3.131A1.565,1.565,0,0,1,55.556,27.27Z" transform="translate(-53.994 -21.013)" fill="#d4091b"/>
        </g>
        <g id="Сгруппировать_3875" data-name="Сгруппировать 3875" transform="translate(3.15 20.337)">
          <path id="Контур_41481" data-name="Контур 41481" d="M56.114,33.138H54.572a1.564,1.564,0,0,1,0-3.128h1.542a1.564,1.564,0,0,1,0,3.128Z" transform="translate(-53.008 -30.01)" fill="#d4091b"/>
        </g>
      </g>
      <g id="Сгруппировать_3877" data-name="Сгруппировать 3877" transform="translate(0 1.551)">
        <path id="Контур_41482" data-name="Контур 41482" d="M53.945,21.126H44.558a1.564,1.564,0,0,1,0-3.128h9.387a1.564,1.564,0,1,1,0,3.128Z" transform="translate(-42.994 -17.998)" fill="#d4091b"/>
      </g>
      <g id="Сгруппировать_3878" data-name="Сгруппировать 3878" transform="translate(4.698 6.264)">
        <path id="Контур_41483" data-name="Контур 41483" d="M52.251,24.139H47.562a1.564,1.564,0,0,1,0-3.128h4.689a1.564,1.564,0,1,1,0,3.128Z" transform="translate(-45.998 -21.011)" fill="#d4091b"/>
      </g>
      <g id="Сгруппировать_3879" data-name="Сгруппировать 3879" transform="translate(17.206 26.576)">
        <path id="Контур_41484" data-name="Контур 41484" d="M63.38,49.64H55.56A1.563,1.563,0,0,1,54,48.076V35.563A1.563,1.563,0,0,1,55.56,34h7.82a1.563,1.563,0,0,1,1.564,1.564V48.076A1.563,1.563,0,0,1,63.38,49.64Zm-6.256-3.128h4.692V37.127H57.124Z" transform="translate(-53.996 -33.999)" fill="#d4091b"/>
      </g>
    </g>
    <g id="Сгруппировать_3899" data-name="Сгруппировать 3899" transform="translate(1462.331 3949)">
      <g id="Сгруппировать_3894" data-name="Сгруппировать 3894" transform="translate(10.923 0)">
        <g id="Сгруппировать_3880" data-name="Сгруппировать 3880" transform="translate(0)">
          <path id="Контур_41485" data-name="Контур 41485" d="M42.7,22.767H17.672a4.7,4.7,0,0,1-4.692-4.692V8.692A4.7,4.7,0,0,1,17.672,4H42.7A4.7,4.7,0,0,1,47.39,8.692v9.384A4.7,4.7,0,0,1,42.7,22.767ZM17.672,7.128a1.565,1.565,0,0,0-1.564,1.564v9.384a1.565,1.565,0,0,0,1.564,1.564H42.7a1.565,1.565,0,0,0,1.564-1.564V8.692A1.565,1.565,0,0,0,42.7,7.128Z" transform="translate(-12.98 -4)" fill="#d4091b"/>
        </g>
        <g id="Сгруппировать_3881" data-name="Сгруппировать 3881" transform="translate(0 9.384)">
          <path id="Контур_41486" data-name="Контур 41486" d="M42.7,25.639H17.672a4.7,4.7,0,0,1-4.692-4.692V11.564a1.564,1.564,0,1,1,3.128,0v9.384a1.565,1.565,0,0,0,1.564,1.564H42.7a1.565,1.565,0,0,0,1.564-1.564V11.564a1.564,1.564,0,1,1,3.128,0v9.384A4.7,4.7,0,0,1,42.7,25.639Z" transform="translate(-12.98 -10)" fill="#d4091b"/>
        </g>
        <g id="Сгруппировать_3893" data-name="Сгруппировать 3893" transform="translate(1.605 3.128)">
          <g id="Сгруппировать_3882" data-name="Сгруппировать 3882" transform="translate(0 9.384)">
            <path id="Контур_41487" data-name="Контур 41487" d="M15.578,15.128A1.564,1.564,0,0,1,15.561,12h.017a1.564,1.564,0,1,1,0,3.128Z" transform="translate(-14.006 -12)" fill="#d4091b"/>
          </g>
          <g id="Сгруппировать_3883" data-name="Сгруппировать 3883">
            <path id="Контур_41488" data-name="Контур 41488" d="M15.578,9.128A1.564,1.564,0,0,1,15.561,6h.017a1.564,1.564,0,1,1,0,3.128Z" transform="translate(-14.006 -6)" fill="#d4091b"/>
          </g>
          <g id="Сгруппировать_3884" data-name="Сгруппировать 3884" transform="translate(4.692 4.692)">
            <path id="Контур_41489" data-name="Контур 41489" d="M18.578,12.128A1.564,1.564,0,0,1,18.561,9h.017a1.564,1.564,0,1,1,0,3.128Z" transform="translate(-17.006 -9)" fill="#d4091b"/>
          </g>
          <g id="Сгруппировать_3885" data-name="Сгруппировать 3885" transform="translate(9.384 9.384)">
            <path id="Контур_41490" data-name="Контур 41490" d="M21.578,15.128A1.564,1.564,0,0,1,21.561,12h.017a1.564,1.564,0,0,1,0,3.128Z" transform="translate(-20.006 -12)" fill="#d4091b"/>
          </g>
          <g id="Сгруппировать_3886" data-name="Сгруппировать 3886" transform="translate(9.384)">
            <path id="Контур_41491" data-name="Контур 41491" d="M21.578,9.128A1.564,1.564,0,0,1,21.561,6h.017a1.564,1.564,0,1,1,0,3.128Z" transform="translate(-20.006 -6)" fill="#d4091b"/>
          </g>
          <g id="Сгруппировать_3887" data-name="Сгруппировать 3887" transform="translate(14.075 4.692)">
            <path id="Контур_41492" data-name="Контур 41492" d="M24.578,12.128A1.564,1.564,0,0,1,24.561,9h.017a1.564,1.564,0,1,1,0,3.128Z" transform="translate(-23.006 -9)" fill="#d4091b"/>
          </g>
          <g id="Сгруппировать_3888" data-name="Сгруппировать 3888" transform="translate(18.767 9.384)">
            <path id="Контур_41493" data-name="Контур 41493" d="M27.578,15.128A1.564,1.564,0,0,1,27.561,12h.017a1.564,1.564,0,0,1,0,3.128Z" transform="translate(-26.006 -12)" fill="#d4091b"/>
          </g>
          <g id="Сгруппировать_3889" data-name="Сгруппировать 3889" transform="translate(18.767)">
            <path id="Контур_41494" data-name="Контур 41494" d="M27.578,9.128A1.564,1.564,0,0,1,27.561,6h.017a1.564,1.564,0,1,1,0,3.128Z" transform="translate(-26.006 -6)" fill="#d4091b"/>
          </g>
          <g id="Сгруппировать_3890" data-name="Сгруппировать 3890" transform="translate(23.459 4.692)">
            <path id="Контур_41495" data-name="Контур 41495" d="M30.578,12.128A1.564,1.564,0,0,1,30.561,9h.017a1.564,1.564,0,0,1,0,3.128Z" transform="translate(-29.006 -9)" fill="#d4091b"/>
          </g>
          <g id="Сгруппировать_3891" data-name="Сгруппировать 3891" transform="translate(28.151 9.384)">
            <path id="Контур_41496" data-name="Контур 41496" d="M33.578,15.128A1.564,1.564,0,0,1,33.561,12h.017a1.564,1.564,0,1,1,0,3.128Z" transform="translate(-32.006 -12)" fill="#d4091b"/>
          </g>
          <g id="Сгруппировать_3892" data-name="Сгруппировать 3892" transform="translate(28.151)">
            <path id="Контур_41497" data-name="Контур 41497" d="M33.578,9.128A1.564,1.564,0,0,1,33.561,6h.017a1.564,1.564,0,1,1,0,3.128Z" transform="translate(-32.006 -6)" fill="#d4091b"/>
          </g>
        </g>
      </g>
      <g id="Сгруппировать_3895" data-name="Сгруппировать 3895" transform="translate(48.485 10.946)">
        <path id="Контур_41498" data-name="Контур 41498" d="M38.562,18.817a1.564,1.564,0,0,1-1.106-2.67l4.692-4.69a1.564,1.564,0,0,1,2.211,2.211l-4.692,4.69A1.56,1.56,0,0,1,38.562,18.817Z" transform="translate(-36.998 -10.999)" fill="#d4091b"/>
      </g>
      <g id="Сгруппировать_3896" data-name="Сгруппировать 3896" transform="translate(0 10.946)">
        <path id="Контур_41499" data-name="Контур 41499" d="M12.252,18.817a1.56,1.56,0,0,1-1.106-.458l-4.692-4.69a1.564,1.564,0,0,1,2.211-2.211l4.692,4.69a1.564,1.564,0,0,1-1.106,2.67Z" transform="translate(-5.996 -10.999)" fill="#d4091b"/>
      </g>
    </g>
    <g id="car-wash_3_" data-name="car-wash (3)" transform="translate(1442 3972.459)">
      <g id="Сгруппировать_3897" data-name="Сгруппировать 3897" transform="translate(0 0)">
        <path id="Контур_41503" data-name="Контур 41503" d="M7,51h3.128v3.128H7Z" transform="translate(2.384 -4.082)" fill="#fff"/>
        <path id="Контур_41504" data-name="Контур 41504" d="M55,51h3.128v3.128H55Z" transform="translate(29.453 -4.082)" fill="#fff"/>
        <path id="Контур_41505" data-name="Контур 41505" d="M53.843,43H22.564A1.565,1.565,0,0,0,21,44.564V50.82a1.565,1.565,0,0,0,1.564,1.564H53.843a1.565,1.565,0,0,0,1.564-1.564V44.564A1.565,1.565,0,0,0,53.843,43Zm-1.564,6.256H24.128V46.128H52.279Z" transform="translate(10.279 -8.593)" fill="#fff"/>
        <path id="Контур_41506" data-name="Контур 41506" d="M96.4,36.639H87.017a1.566,1.566,0,0,0-1.4.865l-1.092,2.182L77,26.516A10.971,10.971,0,0,0,67.5,21H31.469a10.977,10.977,0,0,0-9.506,5.516l-7.526,13.17L13.346,37.5a1.562,1.562,0,0,0-1.4-.865H2.564A1.565,1.565,0,0,0,1,38.2v6.256a1.565,1.565,0,0,0,1.564,1.564h6.72L1.546,52.656A1.561,1.561,0,0,0,1,53.843V66.354A10.909,10.909,0,0,0,4.128,74v7.992A4.7,4.7,0,0,0,8.82,86.685H21.331a4.7,4.7,0,0,0,4.692-4.692V77.3H72.941v4.692a4.7,4.7,0,0,0,4.692,4.692H90.145a4.7,4.7,0,0,0,4.692-4.692V74a10.909,10.909,0,0,0,3.128-7.648V53.843a1.561,1.561,0,0,0-.546-1.187L89.68,46.023H96.4a1.565,1.565,0,0,0,1.564-1.564V38.2A1.565,1.565,0,0,0,96.4,36.639ZM24.68,28.067a7.835,7.835,0,0,1,6.789-3.94H67.5a7.835,7.835,0,0,1,6.789,3.94L82.758,42.9H80.082L72.976,31.051a7.856,7.856,0,0,0-6.7-3.8H32.693a7.858,7.858,0,0,0-6.7,3.8L18.882,42.9H16.206ZM76.435,42.9H22.529l6.14-10.233a4.715,4.715,0,0,1,4.024-2.279H66.273A4.712,4.712,0,0,1,70.3,32.662ZM4.128,39.767h6.853L12.545,42.9H4.128Zm12.1,15.639L24.614,60.2l-2.193,1.462H4.128V55.407ZM22.9,81.994a1.567,1.567,0,0,1-1.564,1.564H8.82a1.567,1.567,0,0,1-1.564-1.564V76.231A10.85,10.85,0,0,0,11.948,77.3H22.9Zm8.467-7.82,3.128-3.128H64.474L67.6,74.174Zm58.782,9.384H77.633a1.567,1.567,0,0,1-1.564-1.564V77.3H87.017a10.85,10.85,0,0,0,4.692-1.071v5.763A1.567,1.567,0,0,1,90.145,83.558Zm4.692-21.9H76.543L74.35,60.2l8.391-4.793h12.1Zm-2.663-9.384H82.325a1.553,1.553,0,0,0-.776.206L70.6,58.741a1.564,1.564,0,0,0-.091,2.659L75.2,64.528a1.564,1.564,0,0,0,.866.263H94.836v1.564a7.829,7.829,0,0,1-7.82,7.82H72.025l-5.8-5.8a1.56,1.56,0,0,0-1.106-.458H33.843a1.56,1.56,0,0,0-1.106.458l-5.8,5.8H11.948a7.829,7.829,0,0,1-7.82-7.82V64.79H22.9a1.573,1.573,0,0,0,.868-.263L28.455,61.4a1.564,1.564,0,0,0-.091-2.659L17.417,52.485a1.563,1.563,0,0,0-.777-.206H6.791l7.3-6.256H84.874ZM94.836,42.9H86.419l1.564-3.128h6.853Z" transform="translate(-1 -21)" fill="#fff"/>
      </g>
    </g>
  </g>
</svg>
