<svg xmlns="http://www.w3.org/2000/svg" width="122" height="122" viewBox="0 0 122 122">
  <g id="Out_line" data-name="Out line" transform="translate(-16 -16)">
    <path id="Контур_41531" data-name="Контур 41531" d="M169.467,288.267a6.107,6.107,0,0,0-6.1-6.1h-1.553a6.066,6.066,0,0,0-5.456,3.372l-1.879,3.757a11.349,11.349,0,0,1-3.269-4.671A19.45,19.45,0,0,0,132.994,272H116.473a19.543,19.543,0,0,0-18.217,12.626,11.452,11.452,0,0,1-3.269,4.669l-1.878-3.756a6.066,6.066,0,0,0-5.456-3.372H86.1a6.1,6.1,0,0,0,0,12.2h1.94a15.459,15.459,0,0,0-1.65,2.2c-.181.29-.358.6-.521.911a15.559,15.559,0,0,0-1.8,7.261V326.9a2.033,2.033,0,0,0,2.033,2.033H98.3a2.033,2.033,0,0,0,2.033-2.033v-6.1h48.8v6.1a2.033,2.033,0,0,0,2.033,2.033h12.2A2.033,2.033,0,0,0,165.4,326.9V304.742a15.568,15.568,0,0,0-3.971-10.375h1.937A6.107,6.107,0,0,0,169.467,288.267Zm-9.472-.909a2.022,2.022,0,0,1,1.819-1.124h1.553a2.033,2.033,0,1,1,0,4.067h-4.843Zm-15.5,29.376-3.6-10.81a2.034,2.034,0,0,0-1.929-1.39H110.5a2.034,2.034,0,0,0-1.929,1.39l-3.6,10.81H88.133v-9.765a12.151,12.151,0,0,0,6.1,1.632h6.1a2.033,2.033,0,0,0,2.033-2.033,16.6,16.6,0,0,0-5.286-12.2h55.3a16.6,16.6,0,0,0-5.286,12.2,2.033,2.033,0,0,0,2.033,2.033h6.1a12.15,12.15,0,0,0,6.1-1.632v9.765ZM92.364,295.851a12.559,12.559,0,0,1,5.774,8.682H94.233a8.084,8.084,0,0,1-5.79-2.422,11.458,11.458,0,0,1,1.023-2.734q.182-.347.379-.663A11.447,11.447,0,0,1,92.364,295.851Zm14.069-5.551a4.067,4.067,0,0,1,8.133,0Zm26.433,0a4.067,4.067,0,0,1,8.133,0Zm22.367,14.233h-3.905a12.558,12.558,0,0,1,5.778-8.685,11.441,11.441,0,0,1,3.917,6.262A8.084,8.084,0,0,1,155.233,304.533Zm-38.76-28.467H122.7V278.1h-2.033v4.067H128.8V278.1h-2.033v-2.033h6.227a15.385,15.385,0,0,1,14.409,9.987,15.405,15.405,0,0,0,2.415,4.246h-4.751a8.133,8.133,0,0,0-16.267,0H118.633a8.133,8.133,0,0,0-16.267,0H99.646a15.493,15.493,0,0,0,2.418-4.248A15.458,15.458,0,0,1,116.473,276.067Zm-32.406,12.2a2.036,2.036,0,0,1,2.033-2.033h1.553a2.022,2.022,0,0,1,1.819,1.124l1.471,2.943H86.1A2.036,2.036,0,0,1,84.067,288.267Zm12.2,36.6H88.133V320.8h8.133Zm12.988-8.133,2.711-8.133H137.5l2.711,8.133Zm43.946,8.133V320.8h8.133v4.067Z" transform="translate(-47.733 -190.933)" fill="#fff"/>
    <path id="Контур_41532" data-name="Контур 41532" d="M135.967,16H18.033A2.033,2.033,0,0,0,16,18.033V135.967A2.033,2.033,0,0,0,18.033,138h8.133a2.033,2.033,0,0,0,2.033-2.033v-61h97.6v61A2.033,2.033,0,0,0,127.833,138h8.133A2.033,2.033,0,0,0,138,135.967V18.033A2.033,2.033,0,0,0,135.967,16Zm-115.9,4.067H133.933V30.233H20.067Zm0,113.867V34.3h4.067v99.633ZM28.2,70.9V34.3h97.6v4.067H32.267v4.067H125.8V46.5H32.267v4.067H125.8v4.067H32.267V58.7H125.8v4.067H32.267v4.067H125.8V70.9Zm101.667,63.033V34.3h4.067v99.633Z" fill="#d4091b"/>
  </g>
</svg>
