<svg xmlns="http://www.w3.org/2000/svg" width="129.58" height="131.442" viewBox="0 0 129.58 131.442">
  <g id="Сгруппировать_3911" data-name="Сгруппировать 3911" transform="translate(-1111 -3302.318)">
    <g id="Сгруппировать_3910" data-name="Сгруппировать 3910">
      <g id="Сгруппировать_3907" data-name="Сгруппировать 3907" transform="translate(72 -1255.682)">
        <g id="Сгруппировать_3903" data-name="Сгруппировать 3903" transform="translate(1039 4558)">
          <g id="car_8_" data-name="car (8)" transform="translate(0 0)">
            <path id="Контур_41521" data-name="Контур 41521" d="M3.515,3.511H17.558V8.777H10.536a3.514,3.514,0,0,0-3.511,3.511V96.547a3.514,3.514,0,0,0,3.511,3.511h3.511V96.547H10.536V12.288h7.022V15.8a5.273,5.273,0,0,0,5.266,5.266H57.932A5.273,5.273,0,0,0,63.2,15.8V12.288h5.266V42.13h3.511V12.288a3.514,3.514,0,0,0-3.511-3.511H63.2V3.511H75.518l-.032,38.617,3.511,0,.032-38.619A3.515,3.515,0,0,0,75.518,0h-72A3.514,3.514,0,0,0,0,3.511V108.835a3.514,3.514,0,0,0,3.511,3.511H21.069v-3.511H3.515V3.511Zm56.173,0V15.8a1.757,1.757,0,0,1-1.755,1.755H22.824A1.757,1.757,0,0,1,21.069,15.8V3.511Z" transform="translate(-0.004 0)" fill="#d4091b"/>
            <path id="Контур_41523" data-name="Контур 41523" d="M90.955,123.2,86.9,128.6l-2.08-2.08L82.34,129l3.511,3.511a1.751,1.751,0,0,0,1.243.516c.04,0,.082,0,.125-.005a1.757,1.757,0,0,0,1.28-.7l5.266-7.022Z" transform="translate(-64.273 -96.167)" fill="#d4091b"/>
            <path id="Контур_41524" data-name="Контур 41524" d="M90.955,179.2,86.9,184.6l-2.08-2.08L82.34,185l3.511,3.511a1.751,1.751,0,0,0,1.243.516c.04,0,.082,0,.125-.005a1.757,1.757,0,0,0,1.28-.7l5.266-7.022Z" transform="translate(-64.273 -139.879)" fill="#d4091b"/>
            <path id="Контур_41525" data-name="Контур 41525" d="M84.83,238.523l-2.482,2.482,3.511,3.511a1.75,1.75,0,0,0,1.241.514c.04,0,.083,0,.125-.005a1.757,1.757,0,0,0,1.28-.7l5.266-7.022L90.962,235.2l-4.053,5.4Z" transform="translate(-64.28 -183.591)" fill="#d4091b"/>
            <rect id="Прямоугольник_1344" data-name="Прямоугольник 1344" width="28.634" height="3.304" transform="translate(33.039 29.735)" fill="#d4091b"/>
            <rect id="Прямоугольник_1345" data-name="Прямоугольник 1345" width="7.709" height="3.304" transform="translate(33.039 41.849)" fill="#d4091b"/>
            <rect id="Прямоугольник_1346" data-name="Прямоугольник 1346" width="3.304" height="3.304" transform="translate(26.431 8.81)" fill="#d4091b"/>
            <rect id="Прямоугольник_1347" data-name="Прямоугольник 1347" width="3.304" height="3.304" transform="translate(50.66 8.81)" fill="#d4091b"/>
            <rect id="Прямоугольник_1348" data-name="Прямоугольник 1348" width="3.304" height="3.304" transform="translate(38.545 8.81)" fill="#d4091b"/>
          </g>
        </g>
        <g id="Сгруппировать_3906" data-name="Сгруппировать 3906" transform="translate(1056.554 4603.639)">
          <g id="Сгруппировать_3905" data-name="Сгруппировать 3905" transform="translate(0)">
            <g id="Сгруппировать_3904" data-name="Сгруппировать 3904">
              <path id="Контур_41526" data-name="Контур 41526" d="M353.759,362.532h15.8a7.029,7.029,0,0,0,7.022-7.022v-1.755A1.755,1.755,0,0,0,374.824,352H357.27A5.273,5.273,0,0,0,352,357.266v3.511A1.755,1.755,0,0,0,353.759,362.532Zm1.755-5.266a1.757,1.757,0,0,1,1.755-1.755h15.8a3.514,3.514,0,0,1-3.511,3.511H355.515Z" transform="translate(-292.321 -320.402)" fill="#fff"/>
              <path id="Контур_41527" data-name="Контур 41527" d="M147.313,352H129.759A1.755,1.755,0,0,0,128,353.755v1.755a7.029,7.029,0,0,0,7.022,7.022h15.8a1.755,1.755,0,0,0,1.755-1.755v-3.511A5.273,5.273,0,0,0,147.313,352Zm1.755,7.022H135.026a3.514,3.514,0,0,1-3.511-3.511h15.8a1.757,1.757,0,0,1,1.755,1.755Z" transform="translate(-117.472 -320.402)" fill="#fff"/>
              <rect id="Прямоугольник_1349" data-name="Прямоугольник 1349" width="17.621" height="3.304" transform="translate(38.612 31.451)" fill="#fff"/>
              <rect id="Прямоугольник_1350" data-name="Прямоугольник 1350" width="17.621" height="3.304" transform="translate(38.612 39.161)" fill="#fff"/>
              <path id="Контур_41528" data-name="Контур 41528" d="M171.285,253.963V241.97a10.536,10.536,0,0,0-6.27-9.63l-3.435-1.52h4.439v-3.511h-6.37L155.9,216.387A12.553,12.553,0,0,0,143.967,208H110.832a12.554,12.554,0,0,0-11.938,8.387l-3.743,10.922h-6.37v3.511h3.195l-2.759,1.425a10.5,10.5,0,0,0-5.7,9.36v12.36A5.259,5.259,0,0,0,80,258.908v1.755a5.273,5.273,0,0,0,5.266,5.266h1.755v3.511a5.273,5.273,0,0,0,5.266,5.266h7.022a5.273,5.273,0,0,0,5.266-5.266V265.93h8.777v1.755a1.755,1.755,0,0,0,1.755,1.755h24.576a1.755,1.755,0,0,0,1.755-1.755V265.93h8.777v3.511a5.273,5.273,0,0,0,5.266,5.266h7.022a5.273,5.273,0,0,0,5.266-5.266V265.93h1.755a5.273,5.273,0,0,0,5.266-5.266v-1.755A5.26,5.26,0,0,0,171.285,253.963Zm-26.942-21.388H133.437l1.622-4.366a1.742,1.742,0,0,1,1.532-.9h6.191a1.746,1.746,0,0,1,1.571.972l1.912,3.827Zm-42.128-15.049a9.044,9.044,0,0,1,8.617-6.016h33.133a9.044,9.044,0,0,1,8.617,6.016l4,11.656-6.871,1.964-2.215-4.436a5.239,5.239,0,0,0-4.712-2.912h-6.191a5.239,5.239,0,0,0-4.71,2.91c-.028.056-.053.114-.075.174l-2.115,5.693H121.6l-2.115-5.693c-.023-.058-.047-.116-.075-.174a5.242,5.242,0,0,0-4.712-2.91h-6.191a5.24,5.24,0,0,0-4.712,2.912L101.9,230.5l-3.816-.929Zm3.188,13.82,1.531-3.067a1.75,1.75,0,0,1,1.573-.971H114.7a1.741,1.741,0,0,1,1.532.9l1.622,4.366h-7.4ZM83.515,260.662v-1.755a1.757,1.757,0,0,1,1.755-1.755h9.393a5.934,5.934,0,0,0,0,5.266H85.27A1.757,1.757,0,0,1,83.515,260.662Zm19.309-.878a2.633,2.633,0,1,1-2.633-2.633A2.636,2.636,0,0,1,102.824,259.784Zm-1.755,9.655a1.757,1.757,0,0,1-1.755,1.755H92.292a1.757,1.757,0,0,1-1.755-1.755v-3.511h10.532Zm4.65-7.022a5.934,5.934,0,0,0,0-5.266h7.638v5.266Zm32.213,3.511H116.867v-8.777h21.065Zm-22.82-12.288H87.026V241.605a7,7,0,0,1,3.8-6.24l5.192-2.68,13.345,3.349a1.685,1.685,0,0,0,.428.053h35.162a1.789,1.789,0,0,0,.483-.067l2.263-.646,10-2.431,5.893,2.609a7.026,7.026,0,0,1,4.181,6.421V253.64H115.112Zm40.374,6.144a2.633,2.633,0,1,1-2.633-2.633A2.636,2.636,0,0,1,155.486,259.784Zm-14.043-2.633h5.882a5.934,5.934,0,0,0,0,5.266h-5.882Zm22.82,12.288a1.757,1.757,0,0,1-1.755,1.755h-7.022a1.757,1.757,0,0,1-1.755-1.755v-3.511h10.532Zm7.022-8.777a1.757,1.757,0,0,1-1.755,1.755H158.381a5.934,5.934,0,0,0,0-5.266h11.149a1.757,1.757,0,0,1,1.755,1.755Z" transform="translate(-80.004 -208)" fill="#fff"/>
            </g>
          </g>
        </g>
      </g>
      <g id="Сгруппировать_3908" data-name="Сгруппировать 3908" transform="translate(-1)">
        <line id="Линия_353" data-name="Линия 353" y1="62" transform="translate(1236.5 3350.5)" fill="none" stroke="#fff" stroke-width="2"/>
        <path id="Контур_41529" data-name="Контур 41529" d="M-8854.883-20470.336l5.168-2.437,4.4,2.65" transform="translate(10086.383 23823)" fill="none" stroke="#fff" stroke-width="2"/>
        <path id="Контур_41530" data-name="Контур 41530" d="M-8854.883-20472.562l5.168,2.438,4.4-2.65" transform="translate(10086.383 23883.002)" fill="none" stroke="#fff" stroke-width="2"/>
      </g>
      <g id="Сгруппировать_3909" data-name="Сгруппировать 3909" transform="translate(-2221.727 4664.834) rotate(-90)">
        <line id="Линия_353-2" data-name="Линия 353" y1="94.195" transform="translate(1236.5 3350.5)" fill="none" stroke="#fff" stroke-width="2"/>
        <path id="Контур_41529-2" data-name="Контур 41529" d="M-8854.883-20470.336l5.168-2.437,4.4,2.65" transform="translate(10086.383 23823)" fill="none" stroke="#fff" stroke-width="2"/>
        <path id="Контур_41530-2" data-name="Контур 41530" d="M-8854.883-20472.562l5.168,2.438,4.4-2.65" transform="translate(10086.383 23915.197)" fill="none" stroke="#fff" stroke-width="2"/>
      </g>
    </g>
  </g>
</svg>
