<svg xmlns="http://www.w3.org/2000/svg" width="590.415" height="508.673" viewBox="0 0 590.415 508.673">
  <g id="Контур_30168" data-name="Контур 30168" transform="translate(0.016 -31.457)" fill="none">
    <path d="M158,31.5c166.637-2.459,222.349,112.085,333.286,61.38S590,211.639,590,297.731c0,164.612,6.924,227.482-156,227.482-64.029,0-155.344-70.721-276,0S0,397.651,0,297.731C0,133.118-4.924,31.5,158,31.5Z" stroke="none"/>
    <path d="M 163.2838134765625 35.45697021484375 C 161.5568237304688 35.45697021484375 159.7988891601562 35.469970703125 158.0588989257812 35.49560546875 L 157.9999694824219 35.49603271484375 C 148.3162231445312 35.49603271484375 139.0599670410156 35.8662109375 130.4882202148438 36.59619140625 C 122.0274658203125 37.3167724609375 113.9684753417969 38.4105224609375 106.5353088378906 39.84710693359375 C 99.22122192382812 41.26068115234375 92.282470703125 43.05078125 85.91180419921875 45.167724609375 C 79.6619873046875 47.24444580078125 73.75921630859375 49.7021484375 68.36773681640625 52.4725341796875 C 63.08929443359375 55.184814453125 58.1282958984375 58.2855224609375 53.62274169921875 61.6885986328125 C 49.21405029296875 65.0184326171875 45.0933837890625 68.74969482421875 41.37506103515625 72.77880859375 C 37.7364501953125 76.7215576171875 34.3583984375 81.084716796875 31.33465576171875 85.7471923828125 C 28.37945556640625 90.30401611328125 25.65997314453125 95.30523681640625 23.2518310546875 100.612060546875 C 14.38800048828125 120.1447143554688 9.0203857421875 144.9343872070312 6.35992431640625 178.62646484375 C 5.24957275390625 192.6872863769531 4.5797119140625 208.3787231445312 4.251708984375 228.0084533691406 C 3.9586181640625 245.5535278320312 3.9747314453125 264.0591125488281 3.9918212890625 283.6512145996094 C 3.99578857421875 288.2397155761719 4 292.9844665527344 4 297.7308654785156 C 4 308.654296875 4.4447021484375 320.3037109375 5.3218994140625 332.3556213378906 C 6.258544921875 345.2251281738281 7.66845703125 358.2385559082031 9.51263427734375 371.0344543457031 C 11.50341796875 384.8479614257812 13.98828125 398.3062133789062 16.8983154296875 411.0352783203125 C 20.04632568359375 424.8053588867188 23.70947265625 437.7896118164062 27.7861328125 449.627197265625 C 36.93365478515625 476.1895446777344 48.11822509765625 497.0404663085938 61.02923583984375 511.6007995605469 C 64.48797607421875 515.5012817382812 68.112548828125 518.9854736328125 71.802490234375 521.9566040039062 C 75.58734130859375 525.0042724609375 79.543212890625 527.5943603515625 83.560302734375 529.6549072265625 C 87.68414306640625 531.7702026367188 91.98931884765625 533.3870239257812 96.35604858398438 534.4605712890625 C 100.8614807128906 535.5680541992188 105.5647277832031 536.129638671875 110.3352355957031 536.129638671875 C 117.1553039550781 536.129638671875 124.3484802246094 534.9822998046875 131.7148132324219 532.7193603515625 C 139.4780578613281 530.3345336914062 147.6411437988281 526.6478881835938 155.9772338867188 521.76171875 C 192.691650390625 500.2418823242188 229.6459655761719 489.7808837890625 268.9518127441406 489.7808837890625 C 307.1492309570312 489.7808837890625 341.18212890625 499.6386108398438 371.2088012695312 508.3360595703125 C 383.0328063964844 511.7608642578125 394.2010498046875 514.9957885742188 404.7320556640625 517.3692626953125 C 416.3662109375 519.9913940429688 425.6663208007812 521.212646484375 434 521.212646484375 C 466.225830078125 521.212646484375 491.5160522460938 518.7247314453125 511.3158874511719 513.6068115234375 C 516.23046875 512.33642578125 520.8986206054688 510.8759765625 525.1907348632812 509.2658081054688 C 529.4401245117188 507.6716918945312 533.462646484375 505.8777160644531 537.1465454101562 503.9336242675781 C 540.7836303710938 502.0142822265625 544.2137451171875 499.8837280273438 547.341552734375 497.6009521484375 C 550.4261474609375 495.3497924804688 553.3233642578125 492.872802734375 555.9530029296875 490.2386474609375 C 563.2559814453125 482.9230346679688 568.9151611328125 474.0680541992188 573.2539672851562 463.1677856445312 C 577.3463745117188 452.8865356445312 580.3065795898438 440.6451416015625 582.3037109375 425.7439575195312 C 584.0697021484375 412.5673828125 585.128173828125 397.1415405273438 585.6347045898438 377.1978759765625 C 586.0947875976562 359.0872192382812 586.0594482421875 338.6806945800781 586.0220336914062 317.0761413574219 C 586.01123046875 310.8164672851562 586 304.3436279296875 586 297.7308654785156 C 586 290.3427124023438 586.0892944335938 282.3791198730469 586.1839599609375 273.9479675292969 C 586.3522338867188 258.9573669433594 586.5429077148438 241.9667053222656 586.2321166992188 225.0620422363281 C 585.8771362304688 205.7496337890625 584.9204711914062 189.3627014160156 583.307373046875 174.9648742675781 C 582.3701171875 166.5996398925781 581.1878662109375 158.7631225585938 579.79345703125 151.6731262207031 C 578.2918090820312 144.0375366210938 576.4923706054688 137.0021362304688 574.4452514648438 130.7622985839844 C 572.2767333984375 124.1528015136719 569.7628784179688 118.2288818359375 566.9736328125 113.1553039550781 C 564.0655517578125 107.86572265625 560.772705078125 103.344970703125 557.1865844726562 99.71856689453125 C 553.2926635742188 95.78094482421875 548.9218139648438 92.769287109375 544.1953735351562 90.7672119140625 C 539.2145385742188 88.6573486328125 533.6490478515625 87.5877685546875 527.6533203125 87.588134765625 C 522.7449951171875 87.58843994140625 517.4154663085938 88.30352783203125 511.8128051757812 89.71343994140625 C 505.9275512695312 91.19451904296875 499.580810546875 93.48248291015625 492.948974609375 96.51361083984375 C 473.3275756835938 105.4818115234375 454.4777221679688 109.8413696289062 435.3221435546875 109.8413696289062 C 400.6947326660156 109.8413696289062 370.0068969726562 95.8472900390625 334.473388671875 79.6435546875 C 323.1385498046875 74.4747314453125 311.4178161621094 69.12994384765625 299.0250549316406 64.0113525390625 C 285.0365600585938 58.233642578125 272.17822265625 53.58453369140625 259.7152404785156 49.79840087890625 C 244.6228942871094 45.21343994140625 229.9944763183594 41.831298828125 214.994140625 39.45855712890625 C 206.8092346191406 38.16387939453125 198.4377136230469 37.17181396484375 190.1121520996094 36.509765625 C 181.3255615234375 35.81121826171875 172.2991333007812 35.45697021484375 163.2838134765625 35.45697021484375 M 163.2838134765625 31.45697021484375 C 296.0049133300781 31.45697021484375 357.4825439453125 105.8413696289062 435.3221740722656 105.8413696289062 C 452.8191833496094 105.8413696289062 471.1421508789062 102.082763671875 491.2861328125 92.8756103515625 C 505.2752075195312 86.48175048828125 517.309326171875 83.5887451171875 527.653076171875 83.588134765625 C 599.338623046875 83.583740234375 590 222.4945983886719 590 297.7308654785156 C 590 462.3433837890625 596.9239501953125 525.212646484375 434 525.212646484375 C 391.3165283203125 525.212646484375 336.4952697753906 493.7808532714844 268.9518432617188 493.7808532714844 C 235.1739501953125 493.7808532714844 198.2236328125 501.6359252929688 157.9999694824219 525.212646484375 C 140.3846435546875 535.5377197265625 124.5419921875 540.129638671875 110.335205078125 540.129638671875 C 27.2325439453125 540.129638671875 0 383.062744140625 0 297.7308654785156 C 0 133.1183776855469 -4.92401123046875 31.49603271484375 157.9999694824219 31.49603271484375 C 159.7696838378906 31.46990966796875 161.5389404296875 31.45697021484375 163.2838134765625 31.45697021484375 Z" stroke="none" fill="#d4091b"/>
  </g>
</svg>
