<svg xmlns="http://www.w3.org/2000/svg" width="59.104" height="59.104" viewBox="0 0 59.104 59.104">
  <g id="Сгруппировать_1176" data-name="Сгруппировать 1176" transform="translate(-416 -5220)">
    <g id="Сгруппировать_1159" data-name="Сгруппировать 1159" transform="translate(416 5220)">
      <path id="Контур_25903" data-name="Контур 25903" d="M10.937,34.191a3.462,3.462,0,1,0,5.026,4.135h8.972a3.463,3.463,0,1,1,0,6.926H11.082a5.772,5.772,0,1,0,0,11.544H22.626a1.154,1.154,0,1,0,0-2.309H11.082a3.463,3.463,0,1,1,0-6.926H24.935a5.772,5.772,0,1,0,0-11.544H15.963a3.48,3.48,0,0,0-1.5-1.826l8.817-14.466a12.7,12.7,0,1,0-21.156,0ZM12.7,38.325a1.154,1.154,0,1,1,1.154-1.154A1.156,1.156,0,0,1,12.7,38.325Zm0-36.017a10.391,10.391,0,0,1,8.645,16.154l-.026.041L12.7,32.644S4.062,18.476,4.054,18.463A10.391,10.391,0,0,1,12.7,2.309Z" transform="translate(0 0)" fill="#d4091b"/>
      <path id="Контур_25904" data-name="Контур 25904" d="M65.772,71.544A5.772,5.772,0,1,0,60,65.772,5.778,5.778,0,0,0,65.772,71.544Zm0-9.235a3.463,3.463,0,1,1-3.463,3.463A3.467,3.467,0,0,1,65.772,62.309Z" transform="translate(-53.074 -53.074)" fill="#d4091b"/>
      <path id="Контур_25905" data-name="Контур 25905" d="M290.545,166a12.7,12.7,0,0,0-10.571,19.735l8.784,13.779a3.481,3.481,0,0,0-1.477,1.811H277.154a1.154,1.154,0,0,0,0,2.309h10.126a3.463,3.463,0,1,0,5.052-4.12l8.784-13.779A12.7,12.7,0,0,0,290.545,166Zm0,37.633a1.154,1.154,0,1,1,1.154-1.154A1.156,1.156,0,0,1,290.545,203.633Zm8.645-19.17-8.645,13.56-8.645-13.56a10.389,10.389,0,1,1,17.289,0Z" transform="translate(-244.139 -146.837)" fill="#d4091b"/>
      <path id="Контур_25906" data-name="Контур 25906" d="M357.772,226a5.772,5.772,0,1,0,5.772,5.772A5.778,5.778,0,0,0,357.772,226Zm0,9.235a3.463,3.463,0,1,1,3.463-3.463A3.467,3.467,0,0,1,357.772,235.235Z" transform="translate(-311.366 -199.911)" fill="#d4091b"/>
      <circle id="Эллипс_19" data-name="Эллипс 19" cx="1.417" cy="1.417" r="1.417" transform="translate(26.642 54.197)" fill="#d4091b"/>
    </g>
  </g>
</svg>
