<svg xmlns="http://www.w3.org/2000/svg" width="48.271" height="33.85" viewBox="0 0 48.271 33.85">
  <g id="Сгруппировать_1165" data-name="Сгруппировать 1165" transform="translate(-1068 -5236.335)">
    <g id="Сгруппировать_1163" data-name="Сгруппировать 1163" transform="translate(1069.531 5237.189)">
      <path id="Контур_25911" data-name="Контур 25911" d="M15.963,86.028a2.431,2.431,0,0,1,.755-.5,2.4,2.4,0,0,0-.755.5" transform="translate(-15.963 -85.385)" fill="#d4091b"/>
      <path id="Контур_25912" data-name="Контур 25912" d="M24.74,84.183a2.39,2.39,0,0,1,.362-.112,2.387,2.387,0,0,0-.362.112" transform="translate(-23.898 -84.071)" fill="#d4091b"/>
    </g>
    <g id="Сгруппировать_1164" data-name="Сгруппировать 1164" transform="translate(1068 5236.335)">
      <path id="Контур_25917" data-name="Контур 25917" d="M9.629,259.259a1.58,1.58,0,0,0,.377.044H51.841a1.586,1.586,0,0,0,.377-.044L37.589,245.11,35.74,246.9a6.9,6.9,0,0,1-9.634,0l-1.848-1.788Zm42.212,1.656H10.006a3.2,3.2,0,0,1-2.257-.928.806.806,0,0,1,.006-1.154L23.7,243.411a.8.8,0,0,1,1.117,0l2.407,2.328a5.3,5.3,0,0,0,7.4,0l2.408-2.328a.8.8,0,0,1,1.117,0l15.946,15.422a.807.807,0,0,1,0,1.154,3.2,3.2,0,0,1-2.257.928Z" transform="translate(-6.788 -227.065)" fill="#d4091b"/>
      <path id="Контур_25918" data-name="Контур 25918" d="M356.239,135.583A2.418,2.418,0,1,0,358.652,138a2.419,2.419,0,0,0-2.414-2.418m0,6.448a4.03,4.03,0,1,1,4.023-4.03,4.031,4.031,0,0,1-4.023,4.03" transform="translate(-318.426 -128.329)" fill="#d4091b"/>
      <path id="Контур_25919" data-name="Контур 25919" d="M9.628,76.822,27.223,93.84a5.3,5.3,0,0,0,7.4,0l6.789-6.566a4.012,4.012,0,0,1,5.733-5.545l5.073-4.907a1.587,1.587,0,0,0-.377-.044H10.005a1.583,1.583,0,0,0-.377.044M30.923,96.958A6.908,6.908,0,0,1,26.105,95L7.753,77.249a.806.806,0,0,1-.006-1.154A3.2,3.2,0,0,1,10,75.166H51.84a3.194,3.194,0,0,1,2.257.928.807.807,0,0,1,0,1.154l-6.406,6.2a.8.8,0,0,1-1.193-.084A2.4,2.4,0,1,0,43.06,86.68a.809.809,0,0,1,.286.589.8.8,0,0,1-.245.609L35.739,95a6.907,6.907,0,0,1-4.817,1.959" transform="translate(-6.787 -75.166)" fill="#d4091b"/>
      <path id="Контур_25920" data-name="Контур 25920" d="M183.008,127.181H168.527a.806.806,0,0,1,0-1.612h14.481a.806.806,0,0,1,0,1.612" transform="translate(-151.632 -120.733)" fill="#d4091b"/>
      <path id="Контур_25921" data-name="Контур 25921" d="M203.339,177.586h-9.654a.806.806,0,0,1,0-1.612h9.654a.806.806,0,0,1,0,1.612" transform="translate(-174.376 -166.303)" fill="#d4091b"/>
      <path id="Контур_25923" data-name="Контур 25923" d="M45.053,109.014H3.218A3.224,3.224,0,0,1,0,105.79v-12.9a.8.8,0,1,1,1.609,0v12.9A1.612,1.612,0,0,0,3.218,107.4H45.053a1.612,1.612,0,0,0,1.609-1.612v-27.4a1.612,1.612,0,0,0-1.609-1.612H3.218a1.612,1.612,0,0,0-1.609,1.612v8.059a.8.8,0,1,1-1.609,0V78.388a3.224,3.224,0,0,1,3.218-3.224H45.053a3.224,3.224,0,0,1,3.218,3.224v27.4a3.224,3.224,0,0,1-3.218,3.224" transform="translate(0 -75.164)" fill="#d4091b"/>
    </g>
  </g>
</svg>
