<svg xmlns="http://www.w3.org/2000/svg" width="45.659" height="46.439" viewBox="0 0 45.659 46.439">
  <g id="Сгруппировать_1178" data-name="Сгруппировать 1178" transform="translate(-1642 -5209.952)">
    <g id="Сгруппировать_1169" data-name="Сгруппировать 1169" transform="translate(1650.733 5217.403)">
      <g id="Сгруппировать_1167" data-name="Сгруппировать 1167" transform="translate(0 0)">
        <path id="Контур_25924" data-name="Контур 25924" d="M64.891,57.528q.272-.136.555-.254Q65.163,57.392,64.891,57.528Z" transform="translate(-64.891 -57.274)" fill="#d4091b"/>
        <path id="Контур_25925" data-name="Контур 25925" d="M97.407,205.389a3.761,3.761,0,0,1-1.08.408A3.756,3.756,0,0,0,97.407,205.389Z" transform="translate(-93.524 -192.18)" fill="#d4091b"/>
        <path id="Контур_25927" data-name="Контур 25927" d="M259.2,491.812q-.284.13-.575.238Q258.92,491.942,259.2,491.812Z" transform="translate(-241.353 -453.061)" fill="#d4091b"/>
      </g>
    </g>
    <path id="Контур_25932" data-name="Контур 25932" d="M.345,53.677c.367,1.9.627,3.46.819,4.918a31.115,31.115,0,0,0,1.9,7.386,29.675,29.675,0,0,0,2.784,5.367A30.043,30.043,0,0,0,8.205,74.47c1.207,1.4,2.164,2.557,3.009,3.642l1.052,1.351a9.7,9.7,0,0,0,6.41,3.677,9.9,9.9,0,0,0,1.306.087,9.654,9.654,0,0,0,3.378-.61l.015,0,.045-.018q.1-.039.2-.08l.081-.033q.138-.058.274-.119l.063-.029c.077-.035.153-.073.23-.11l.119-.06.186-.1.164-.091.146-.083c.07-.041.139-.083.208-.126l.1-.064q.133-.085.263-.174l.05-.033c.1-.071.205-.144.305-.22l.011-.008h0a2.373,2.373,0,0,0,.781-1.019q.043-.107.075-.217a2.385,2.385,0,0,0-.31-2q-.034-.051-.071-.1L21.088,70.98a4.619,4.619,0,0,0-2.837-1.774q-.114-.022-.229-.038a4.615,4.615,0,0,0-2.889.524,4.732,4.732,0,0,0-.561.362l-1.446,1.087A29.094,29.094,0,0,1,6.979,57.655l1.795-.378a4.664,4.664,0,0,0,3.611-3.67q.024-.125.041-.251a4.609,4.609,0,0,0,.042-.679,4.7,4.7,0,0,0-.1-.914l-1.793-8.5c-.008-.04-.018-.079-.028-.118l0-.016c-.009-.034-.019-.068-.03-.1v0A2.386,2.386,0,0,0,7.885,41.4l-.019,0-.068.013-.051.009c-.107.023-.213.048-.319.074l-.062.015q-.329.083-.651.188L6.7,41.7c-.139.046-.276.095-.412.146l-.054.021c-.119.046-.237.093-.353.144l-.056.025c-.116.051-.232.1-.347.16l-.046.023q-.178.088-.352.183l-.013.007,0,0A9.763,9.763,0,0,0,.18,52.823ZM16.271,71.122c.049-.021.1-.039.15-.057l.045-.015q.065-.022.131-.04l.036-.01q.084-.022.169-.039l.028-.005q.072-.014.144-.023l.045-.006q.076-.009.152-.014l.022,0c.058,0,.116,0,.175,0h.041q.069,0,.138.006l.048,0c.058,0,.117.011.175.019s.095.015.141.024.087.018.13.028a2.849,2.849,0,0,1,1.619,1.066L24.879,79a.6.6,0,0,1-.125.848q-.158.119-.321.228l-.01.007a7.861,7.861,0,0,1-1.136.634,59.885,59.885,0,0,1-7.026-9.588ZM7.338,43.372l0,0,.177-.054.05-.014.141-.039.1-.025.1-.025.2-.046a.6.6,0,0,1,.062-.01h.01l.052,0h0a.6.6,0,0,1,.2.034l.006,0a.607.607,0,0,1,.087.04l.006,0a.625.625,0,0,1,.071.048l.012.009a.609.609,0,0,1,.067.063l0,0a.593.593,0,0,1,.057.076l.005.009a.589.589,0,0,1,.043.085l0,.009a.6.6,0,0,1,.029.1l1.793,8.5q.015.072.026.144c0,.008,0,.015,0,.023.006.041.012.082.016.123v0c.007.069.012.139.014.208,0,0,0,.007,0,.011,0,.064,0,.127,0,.191,0,.031,0,.062-.006.093s0,.061-.008.092-.009.077-.014.115c0,.019-.006.038-.009.057a2.863,2.863,0,0,1-.17.607l0,.006a2.9,2.9,0,0,1-.306.562l-.026.037a2.881,2.881,0,0,1-.269.32c-.023.024-.047.048-.071.071l-.067.063c-.049.044-.1.087-.151.128l-.015.012c-.047.036-.1.071-.145.1l-.024.016c-.055.037-.112.072-.171.105l-.028.016-.059.031A58.821,58.821,0,0,1,6.446,43.718,7.873,7.873,0,0,1,7.338,43.372Zm-2.56,1.383A61.312,61.312,0,0,0,7.418,55.74l-1.635.345a.892.892,0,0,0-.7,1,30.885,30.885,0,0,0,7.229,15.861.892.892,0,0,0,1.21.13l1.26-.946A62.327,62.327,0,0,0,21.412,81.3a8.011,8.011,0,0,1-7.738-2.931l-1.052-1.351c-.864-1.109-1.838-2.289-3.065-3.711a28.234,28.234,0,0,1-2.217-2.937,27.883,27.883,0,0,1-2.616-5.043,29.327,29.327,0,0,1-1.79-6.963c-.2-1.494-.462-3.091-.836-5.024l-.165-.854A8.011,8.011,0,0,1,4.777,44.755Z" transform="translate(1642 5172.161)" fill="#d4091b"/>
    <path id="Контур_25933" data-name="Контур 25933" d="M195.876,1.251H176.615a5.579,5.579,0,0,0-5.572,5.572V25.267a2.859,2.859,0,0,0,1.742,2.657,2.927,2.927,0,0,0,1.169.247,2.866,2.866,0,0,0,1.962-.784l1.858-1.732a9.041,9.041,0,0,1,6.185-2.436h7.592a.892.892,0,1,0,0-1.784h-7.592a10.818,10.818,0,0,0-7.4,2.915L174.7,26.081a1.113,1.113,0,0,1-1.873-.814V6.823a3.793,3.793,0,0,1,3.789-3.789h19.261a3.793,3.793,0,0,1,3.789,3.789V17.645a3.781,3.781,0,0,1-1.354,2.9.892.892,0,0,0,1.147,1.366,5.565,5.565,0,0,0,1.99-4.268V6.823A5.579,5.579,0,0,0,195.876,1.251Z" transform="translate(1486.21 5208.701)" fill="#d4091b"/>
    <path id="Контур_25934" data-name="Контур 25934" d="M262.641,44.694v3a1.587,1.587,0,0,0,1.135,1.515l.8.234a18.152,18.152,0,0,0,10.207.008l.83-.242a1.587,1.587,0,0,0,1.137-1.516v-3a5.473,5.473,0,0,0-3.04-4.9,4.1,4.1,0,1,0-7.586-.194A5.475,5.475,0,0,0,262.641,44.694Zm7.312-8.854a2.313,2.313,0,1,1-2.314,2.315A2.317,2.317,0,0,1,269.953,35.841Zm-5.528,8.854a3.69,3.69,0,0,1,2.723-3.556,4.086,4.086,0,0,0,5.471.125,3.689,3.689,0,0,1,2.344,3.431v2.844l-.683.2a16.372,16.372,0,0,1-9.206-.007l-.65-.191V44.694Z" transform="translate(1402.781 5178.82)" fill="#d4091b"/>
    <path id="Контур_25935" data-name="Контур 25935" d="M434.153,228.966a.852.852,0,0,0,.111.135.888.888,0,0,0,.289.193.929.929,0,0,0,.168.051.9.9,0,0,0,.348,0,.9.9,0,0,0,.167-.051.879.879,0,0,0,.154-.082.905.905,0,0,0,.136-.111.863.863,0,0,0,.111-.135.847.847,0,0,0,.082-.153.948.948,0,0,0,.052-.167.9.9,0,0,0,.017-.175.879.879,0,0,0-.017-.174.9.9,0,0,0-.052-.167.822.822,0,0,0-.082-.154.868.868,0,0,0-.246-.246.886.886,0,0,0-.154-.082.9.9,0,0,0-.167-.051.876.876,0,0,0-.348,0,.93.93,0,0,0-.168.051.911.911,0,0,0-.153.082.867.867,0,0,0-.246.246.877.877,0,0,0-.082.154.837.837,0,0,0-.051.167.878.878,0,0,0-.018.174.9.9,0,0,0,.018.175.942.942,0,0,0,.051.167A.9.9,0,0,0,434.153,228.966Z" transform="translate(1246.701 5002.555)" fill="#d4091b"/>
  </g>
</svg>
