<svg xmlns="http://www.w3.org/2000/svg" xmlns:xlink="http://www.w3.org/1999/xlink" width="25.015" height="25.02" viewBox="0 0 25.015 25.02">
  <defs>
    <linearGradient id="linear-gradient" x1="0.96" x2="0.085" y2="1" gradientUnits="objectBoundingBox">
      <stop offset="0" stop-color="#ff00a9"/>
      <stop offset="1" stop-color="#ffa200"/>
    </linearGradient>
  </defs>
  <g id="Сгруппировать_4104" data-name="Сгруппировать 4104" transform="translate(-307 -8057)">
    <g id="Сгруппировать_4103" data-name="Сгруппировать 4103" transform="translate(307.07 8057.039)">
      <path id="Контур_30167" data-name="Контур 30167" d="M1.562,1.7C-.4,3.735,0,5.9,0,12.468c0,5.456-.952,10.926,4.03,12.214,1.556.4,15.341.4,16.895,0a5.358,5.358,0,0,0,3.993-5.152c.032-.409.032-13.7,0-14.121a5.366,5.366,0,0,0-4.7-5.291A22.439,22.439,0,0,0,16.538,0C5.965.007,3.648-.464,1.562,1.7Z" fill="url(#linear-gradient)"/>
    </g>
    <path id="Контур_30168" data-name="Контур 30168" d="M12.346,3.139c-3.774,0-7.357-.336-8.726,3.177-.565,1.451-.483,3.335-.483,6.033,0,2.367-.076,4.593.483,6.032C4.986,21.9,8.6,21.56,12.344,21.56c3.614,0,7.339.376,8.725-3.178.566-1.465.483-3.322.483-6.032,0-3.6.2-5.921-1.546-7.665-1.767-1.767-4.156-1.545-7.664-1.545ZM11.521,4.8c7.872-.012,8.873-.888,8.321,11.269-.2,4.3-3.47,3.828-7.494,3.828-7.337,0-7.548-.21-7.548-7.55C4.8,4.92,5.381,4.8,11.521,4.8Zm5.741,1.529a1.1,1.1,0,1,0,1.1,1.1A1.1,1.1,0,0,0,17.262,6.328ZM12.346,7.62a4.729,4.729,0,1,0,4.728,4.73,4.73,4.73,0,0,0-4.728-4.73Zm0,1.66c4.058,0,4.064,6.14,0,6.14S8.283,9.279,12.346,9.279Z" transform="translate(307.25 8057.163)" fill="#fff"/>
  </g>
</svg>
