<svg xmlns="http://www.w3.org/2000/svg" width="1920.532" height="1284.203" viewBox="0 0 1920.532 1284.203">
  <g id="Сгруппировать_3997" data-name="Сгруппировать 3997" transform="translate(0.393 -5570.475)">
    <g id="Сгруппировать_2669" data-name="Сгруппировать 2669" transform="translate(-0.091 2611)" opacity="0.4">
      <path id="Контур_30175" data-name="Контур 30175" d="M-16242-20414.223l404.177-128.779,556.418,160.895,551.236-99.428,408.26,56.66" transform="translate(16242 23602)" fill="none" stroke="#000" stroke-width="1.5" opacity="0.5"/>
      <path id="Контур_30176" data-name="Контур 30176" d="M-16242-20414.223l404.177-128.779,556.418,161.277,537.441-101.67,422.055,58.52" transform="translate(16242 23503)" fill="none" stroke="#000" stroke-width="1" opacity="0.2"/>
      <g id="Сгруппировать_2642" data-name="Сгруппировать 2642">
        <path id="Контур_30174" data-name="Контур 30174" d="M-16242-20414.223l408.86-129.57,550.906,161.445,552.064-100.229,408.26,57.7" transform="translate(16242 23705)" fill="none" stroke="#000" stroke-width="2"/>
        <g id="Сгруппировать_2641" data-name="Сгруппировать 2641" transform="translate(1)">
          <g id="Эллипс_256" data-name="Эллипс 256" transform="translate(372 3151)" fill="#fff" stroke="#000" stroke-width="1.5">
            <ellipse cx="33" cy="13.5" rx="33" ry="13.5" stroke="none"/>
            <ellipse cx="33" cy="13.5" rx="32.25" ry="12.75" fill="none"/>
          </g>
          <ellipse id="Эллипс_257" data-name="Эллипс 257" cx="12" cy="5" rx="12" ry="5" transform="translate(393 3157)"/>
        </g>
        <g id="Сгруппировать_2640" data-name="Сгруппировать 2640" transform="translate(555.045 -100)">
          <g id="Эллипс_258" data-name="Эллипс 258" transform="translate(924 3312)" fill="#fff" stroke="#000" stroke-width="1.5">
            <ellipse cx="33" cy="13.5" rx="33" ry="13.5" stroke="none"/>
            <ellipse cx="33" cy="13.5" rx="32.25" ry="12.75" fill="none"/>
          </g>
          <ellipse id="Эллипс_259" data-name="Эллипс 259" cx="12" cy="5" rx="12" ry="5" transform="translate(945 3318)"/>
        </g>
      </g>
    </g>
    <g id="Сгруппировать_2670" data-name="Сгруппировать 2670" transform="translate(-0.091 6016.998)" opacity="0.4">
      <path id="Контур_30175-2" data-name="Контур 30175" d="M-16242-20510.887l404.177,128.779,556.418-160.895,551.236,99.428,408.26-56.66" transform="translate(16242 20656.109)" fill="none" stroke="#000" stroke-width="1.5" opacity="0.5"/>
      <path id="Контур_30176-2" data-name="Контур 30176" d="M-16242-20510.5l404.177,128.779,556.418-161.277,537.441,101.67,422.055-58.52" transform="translate(16242 20754.727)" fill="none" stroke="#000" stroke-width="1" opacity="0.2"/>
      <g id="Сгруппировать_2642-2" data-name="Сгруппировать 2642">
        <path id="Контур_30174-2" data-name="Контур 30174" d="M-16242-20511.918l408.86,129.57,550.906-161.445,552.064,100.229,408.26-57.7" transform="translate(16242 20554.141)" fill="none" stroke="#000" stroke-width="2"/>
        <g id="Сгруппировать_2641-2" data-name="Сгруппировать 2641" transform="translate(373 155)">
          <g id="Эллипс_256-2" data-name="Эллипс 256" fill="#fff" stroke="#000" stroke-width="1.5">
            <ellipse cx="33" cy="13.5" rx="33" ry="13.5" stroke="none"/>
            <ellipse cx="33" cy="13.5" rx="32.25" ry="12.75" fill="none"/>
          </g>
          <ellipse id="Эллипс_257-2" data-name="Эллипс 257" cx="12" cy="5" rx="12" ry="5" transform="translate(21 11)"/>
        </g>
        <g id="Сгруппировать_2640-2" data-name="Сгруппировать 2640" transform="translate(1479.045 94)">
          <g id="Эллипс_258-2" data-name="Эллипс 258" fill="#fff" stroke="#000" stroke-width="1.5">
            <ellipse cx="33" cy="13.5" rx="33" ry="13.5" stroke="none"/>
            <ellipse cx="33" cy="13.5" rx="32.25" ry="12.75" fill="none"/>
          </g>
          <ellipse id="Эллипс_259-2" data-name="Эллипс 259" cx="12" cy="5" rx="12" ry="5" transform="translate(21 11)"/>
        </g>
      </g>
    </g>
    <g id="Сгруппировать_2671" data-name="Сгруппировать 2671" transform="translate(-0.091 6490.998)" opacity="0.4">
      <path id="Контур_30175-3" data-name="Контур 30175" d="M-16242-20414.223l404.177-128.779,556.418,160.895,551.236-99.428,408.26,56.66" transform="translate(16242 20642.002)" fill="none" stroke="#000" stroke-width="1.5" opacity="0.5"/>
      <path id="Контур_30176-3" data-name="Контур 30176" d="M-16242-20414.223l404.177-128.779,556.418,161.277,537.441-101.67,422.055,58.52" transform="translate(16242 20543.002)" fill="none" stroke="#000" stroke-width="1" opacity="0.2"/>
      <g id="Сгруппировать_2642-3" data-name="Сгруппировать 2642" transform="translate(0 191.002)">
        <path id="Контур_30174-3" data-name="Контур 30174" d="M-16242-20414.223l408.86-129.57,550.906,161.445,552.064-100.229,408.26,57.7" transform="translate(16242 20554)" fill="none" stroke="#000" stroke-width="2"/>
        <g id="Сгруппировать_2641-3" data-name="Сгруппировать 2641" transform="translate(373)">
          <g id="Эллипс_256-3" data-name="Эллипс 256" fill="#fff" stroke="#000" stroke-width="1.5">
            <ellipse cx="33" cy="13.5" rx="33" ry="13.5" stroke="none"/>
            <ellipse cx="33" cy="13.5" rx="32.25" ry="12.75" fill="none"/>
          </g>
          <ellipse id="Эллипс_257-3" data-name="Эллипс 257" cx="12" cy="5" rx="12" ry="5" transform="translate(21 6)"/>
        </g>
        <g id="Сгруппировать_2640-3" data-name="Сгруппировать 2640" transform="translate(1479.045 61)">
          <g id="Эллипс_258-3" data-name="Эллипс 258" fill="#fff" stroke="#000" stroke-width="1.5">
            <ellipse cx="33" cy="13.5" rx="33" ry="13.5" stroke="none"/>
            <ellipse cx="33" cy="13.5" rx="32.25" ry="12.75" fill="none"/>
          </g>
          <ellipse id="Эллипс_259-3" data-name="Эллипс 259" cx="12" cy="5" rx="12" ry="5" transform="translate(21 6)"/>
        </g>
      </g>
    </g>
  </g>
</svg>
